<mxfile host="app.diagrams.net" modified="2020-11-12T01:27:37.386Z" agent="5.0 (X11; Linux x86_64) AppleWebKit/537.36 (KHTML, like Gecko) Chrome/86.0.4240.75 Safari/537.36" etag="ykHwPXi_dZQV0ZLl2klm" version="13.9.6" type="github">
  <diagram id="cjG0-wMCflfudDRZ4qxK" name="Page-1">
    <mxGraphModel dx="2177" dy="774" grid="1" gridSize="10" guides="1" tooltips="1" connect="1" arrows="1" fold="1" page="1" pageScale="1" pageWidth="827" pageHeight="1169" math="0" shadow="0">
      <root>
        <mxCell id="0" />
        <mxCell id="1" parent="0" />
        <mxCell id="p4zJe8Z1YmtzXQgJN9B5-4" style="edgeStyle=none;rounded=0;orthogonalLoop=1;jettySize=auto;html=1;exitX=0.5;exitY=1;exitDx=0;exitDy=0;entryX=0.5;entryY=0;entryDx=0;entryDy=0;" edge="1" parent="1" source="5xbyoXrGmKpDe1DN0S5N-1" target="p4zJe8Z1YmtzXQgJN9B5-3">
          <mxGeometry relative="1" as="geometry" />
        </mxCell>
        <mxCell id="5xbyoXrGmKpDe1DN0S5N-1" value="&lt;pre style=&quot;background-color: #ffffff ; color: #080808 ; font-family: &amp;#34;jetbrains mono&amp;#34; ; font-size: 10.5pt&quot;&gt;UserModel&lt;/pre&gt;" style="rounded=1;whiteSpace=wrap;html=1;" parent="1" vertex="1">
          <mxGeometry x="400" y="20" width="120" height="40" as="geometry" />
        </mxCell>
        <mxCell id="p4zJe8Z1YmtzXQgJN9B5-5" style="edgeStyle=none;rounded=0;orthogonalLoop=1;jettySize=auto;html=1;exitX=0.5;exitY=1;exitDx=0;exitDy=0;entryX=0.5;entryY=0;entryDx=0;entryDy=0;" edge="1" parent="1" source="p4zJe8Z1YmtzXQgJN9B5-3" target="p4zJe8Z1YmtzXQgJN9B5-6">
          <mxGeometry relative="1" as="geometry">
            <mxPoint x="60" y="380" as="targetPoint" />
          </mxGeometry>
        </mxCell>
        <mxCell id="p4zJe8Z1YmtzXQgJN9B5-10" value="" style="edgeStyle=none;rounded=0;orthogonalLoop=1;jettySize=auto;html=1;" edge="1" parent="1" source="p4zJe8Z1YmtzXQgJN9B5-3" target="p4zJe8Z1YmtzXQgJN9B5-9">
          <mxGeometry relative="1" as="geometry" />
        </mxCell>
        <mxCell id="p4zJe8Z1YmtzXQgJN9B5-3" value="&lt;pre style=&quot;background-color: #ffffff ; color: #080808 ; font-family: &amp;#34;jetbrains mono&amp;#34; ; font-size: 10.5pt&quot;&gt;_convert_user_for_compatibility&lt;/pre&gt;" style="rounded=1;whiteSpace=wrap;html=1;" vertex="1" parent="1">
          <mxGeometry x="164" y="170" width="250" height="80" as="geometry" />
        </mxCell>
        <mxCell id="p4zJe8Z1YmtzXQgJN9B5-8" value="" style="edgeStyle=none;rounded=0;orthogonalLoop=1;jettySize=auto;html=1;" edge="1" parent="1" source="p4zJe8Z1YmtzXQgJN9B5-6" target="p4zJe8Z1YmtzXQgJN9B5-7">
          <mxGeometry relative="1" as="geometry" />
        </mxCell>
        <mxCell id="p4zJe8Z1YmtzXQgJN9B5-6" value="&lt;pre style=&quot;background-color: #ffffff ; color: #080808 ; font-family: &amp;#34;jetbrains mono&amp;#34; ; font-size: 10.5pt&quot;&gt;&lt;span style=&quot;color: #000000&quot;&gt;ApprovalFlowNoticeService&lt;/span&gt;&lt;/pre&gt;" style="rounded=1;whiteSpace=wrap;html=1;" vertex="1" parent="1">
          <mxGeometry x="-40" y="660" width="280" height="80" as="geometry" />
        </mxCell>
        <mxCell id="p4zJe8Z1YmtzXQgJN9B5-7" value="&lt;pre style=&quot;background-color: #ffffff ; color: #080808 ; font-family: &amp;#34;jetbrains mono&amp;#34; ; font-size: 10.5pt&quot;&gt;&lt;span style=&quot;color: #000000&quot;&gt;ApprovalFlowResource&lt;/span&gt;&lt;/pre&gt;" style="whiteSpace=wrap;html=1;rounded=1;" vertex="1" parent="1">
          <mxGeometry x="-200" y="980" width="230" height="80" as="geometry" />
        </mxCell>
        <mxCell id="p4zJe8Z1YmtzXQgJN9B5-11" style="edgeStyle=none;rounded=0;orthogonalLoop=1;jettySize=auto;html=1;exitX=0;exitY=0.5;exitDx=0;exitDy=0;entryX=1;entryY=0.5;entryDx=0;entryDy=0;" edge="1" parent="1" source="p4zJe8Z1YmtzXQgJN9B5-9" target="p4zJe8Z1YmtzXQgJN9B5-6">
          <mxGeometry relative="1" as="geometry" />
        </mxCell>
        <mxCell id="p4zJe8Z1YmtzXQgJN9B5-13" value="" style="edgeStyle=none;rounded=0;orthogonalLoop=1;jettySize=auto;html=1;" edge="1" parent="1" source="p4zJe8Z1YmtzXQgJN9B5-9" target="p4zJe8Z1YmtzXQgJN9B5-12">
          <mxGeometry relative="1" as="geometry" />
        </mxCell>
        <mxCell id="p4zJe8Z1YmtzXQgJN9B5-9" value="&lt;pre style=&quot;background-color: #ffffff ; color: #080808 ; font-family: &amp;#34;jetbrains mono&amp;#34; ; font-size: 10.5pt&quot;&gt;&lt;span style=&quot;color: #000000&quot;&gt;SendWechat&lt;/span&gt;&lt;/pre&gt;" style="whiteSpace=wrap;html=1;rounded=1;" vertex="1" parent="1">
          <mxGeometry x="460" y="310" width="120" height="60" as="geometry" />
        </mxCell>
        <mxCell id="p4zJe8Z1YmtzXQgJN9B5-12" value="&lt;pre style=&quot;background-color: #ffffff ; color: #080808 ; font-family: &amp;#34;jetbrains mono&amp;#34; ; font-size: 10.5pt&quot;&gt;&lt;span style=&quot;color: #000000&quot;&gt;BaseNoticeService&lt;/span&gt;&lt;/pre&gt;" style="whiteSpace=wrap;html=1;rounded=1;" vertex="1" parent="1">
          <mxGeometry x="430" y="460" width="180" height="80" as="geometry" />
        </mxCell>
      </root>
    </mxGraphModel>
  </diagram>
</mxfile>
